<?xml version="1.0" standalone="no"?>
<!DOCTYPE svg PUBLIC "-//W3C//DTD SVG 20010904//EN"
 "http://www.w3.org/TR/2001/REC-SVG-20010904/DTD/svg10.dtd">
<svg version="1.0" xmlns="http://www.w3.org/2000/svg"
 width="700.000000pt" height="700.000000pt" viewBox="0 0 700.000000 700.000000"
 preserveAspectRatio="xMidYMid meet">
<metadata>
Created by potrace 1.11, written by Peter Selinger 2001-2013
</metadata>
<g transform="translate(0.000000,700.000000) scale(0.100000,-0.100000)"
fill="#000000" stroke="none">
<path d="M5905 6972 c-81 -4 -223 -32 -299 -59 -162 -58 -346 -185 -438 -304
-13 -17 -31 -40 -41 -52 -33 -39 -86 -132 -117 -205 -26 -62 -39 -104 -67
-214 -13 -56 -14 -295 0 -365 l14 -72 -604 -604 -604 -604 -67 13 c-62 13
-245 19 -302 10 -14 -2 -46 -7 -72 -11 l-46 -7 -607 607 -607 607 7 41 c3 23
8 53 10 67 7 39 6 221 0 265 -21 144 -83 308 -161 428 -68 104 -221 251 -324
312 -184 108 -356 151 -565 142 -71 -4 -141 -8 -155 -11 -53 -10 -75 -16 -124
-32 -423 -140 -709 -535 -706 -973 0 -58 2 -117 4 -131 25 -166 75 -299 164
-435 54 -83 196 -227 270 -275 28 -18 53 -36 53 -39 4 -16 5 -3128 1 -3138 -2
-7 -23 -24 -47 -38 -24 -14 -82 -61 -128 -105 -235 -222 -346 -528 -313 -860
33 -326 259 -648 557 -793 82 -39 207 -83 267 -92 21 -3 49 -8 62 -10 33 -7
206 -7 256 0 475 67 826 420 889 895 8 60 8 210 0 250 -3 14 -9 50 -15 80 -43
234 -185 454 -395 612 l-80 61 0 1378 c0 759 2 1379 5 1379 3 0 214 -209 469
-464 363 -363 462 -467 457 -482 -5 -19 -8 -35 -22 -124 -12 -79 -5 -225 14
-322 84 -410 400 -722 812 -801 84 -17 84 -17 197 -17 263 -2 515 102 704 290
88 87 122 130 174 219 63 107 113 257 130 386 13 102 2 300 -20 357 -4 9 175
195 460 478 256 256 466 466 468 467 1 1 2 -617 2 -1374 0 -1255 -2 -1375 -16
-1384 -70 -39 -220 -177 -282 -260 -38 -50 -98 -160 -128 -234 -52 -132 -69
-230 -65 -395 3 -164 6 -180 47 -305 116 -351 400 -598 784 -681 58 -13 334
-13 380 -1 11 3 45 13 75 21 359 96 665 421 729 772 6 33 13 70 16 84 7 32 7
227 0 260 -3 14 -10 51 -16 84 -41 228 -204 477 -404 617 l-70 49 0 1569 c0
863 2 1571 5 1573 3 2 38 28 77 57 434 316 544 928 247 1382 -122 187 -317
338 -529 408 -101 33 -131 39 -230 47 -38 3 -74 6 -80 7 -5 1 -32 1 -60 -1z
m-4674 -566 c126 -51 241 -171 283 -296 23 -70 30 -209 12 -275 -44 -168 -160
-294 -322 -349 -92 -32 -241 -30 -323 3 -208 84 -322 256 -317 473 5 182 88
323 246 415 115 68 294 80 421 29z m4843 18 c170 -45 313 -192 355 -365 15
-63 7 -203 -14 -264 -55 -161 -196 -286 -364 -325 -131 -31 -297 9 -406 98
-228 184 -247 518 -42 726 63 63 154 116 234 135 53 13 178 10 237 -5z m-2472
-2445 c88 -18 177 -67 244 -135 193 -194 192 -496 -1 -689 -124 -124 -290
-171 -462 -130 -172 40 -312 180 -359 358 -19 71 -12 218 13 282 91 234 325
364 565 314z m-2395 -2465 c189 -66 314 -226 329 -424 20 -245 -141 -464 -384
-520 -70 -16 -192 -8 -264 18 -205 73 -341 276 -325 488 7 93 13 118 48 192
57 118 205 237 320 257 18 3 36 8 38 11 15 15 176 0 238 -22z m4865 11 c184
-49 330 -206 360 -389 27 -167 -25 -323 -147 -441 -267 -258 -714 -127 -810
236 -29 107 -11 253 43 353 59 109 196 216 318 245 53 13 179 11 236 -4z"/>
</g>
</svg>
